<svg width="281" height="96" viewBox="0 0 281 96" fill="none" xmlns="http://www.w3.org/2000/svg">
<path d="M22.3125 36.9688H9.98438L7.64062 44H0.164062L12.8672 9.875H19.3828L32.1562 44H24.6797L22.3125 36.9688ZM11.8828 31.2734H20.4141L16.125 18.5L11.8828 31.2734ZM42.375 31.9766V44H35.3438V9.875H48.6562C51.2188 9.875 53.4688 10.3438 55.4062 11.2812C57.3594 12.2188 58.8594 13.5547 59.9062 15.2891C60.9531 17.0078 61.4766 18.9688 61.4766 21.1719C61.4766 24.5156 60.3281 27.1562 58.0312 29.0938C55.75 31.0156 52.5859 31.9766 48.5391 31.9766H42.375ZM42.375 26.2812H48.6562C50.5156 26.2812 51.9297 25.8438 52.8984 24.9688C53.8828 24.0938 54.375 22.8438 54.375 21.2188C54.375 19.5469 53.8828 18.1953 52.8984 17.1641C51.9141 16.1328 50.5547 15.6016 48.8203 15.5703H42.375V26.2812ZM94.3594 27.7109C94.3594 31.0703 93.7656 34.0156 92.5781 36.5469C91.3906 39.0781 89.6875 41.0312 87.4688 42.4062C85.2656 43.7812 82.7344 44.4688 79.875 44.4688C77.0469 44.4688 74.5234 43.7891 72.3047 42.4297C70.0859 41.0703 68.3672 39.1328 67.1484 36.6172C65.9297 34.0859 65.3125 31.1797 65.2969 27.8984V26.2109C65.2969 22.8516 65.8984 19.8984 67.1016 17.3516C68.3203 14.7891 70.0312 12.8281 72.2344 11.4688C74.4531 10.0937 76.9844 9.40625 79.8281 9.40625C82.6719 9.40625 85.1953 10.0937 87.3984 11.4688C89.6172 12.8281 91.3281 14.7891 92.5312 17.3516C93.75 19.8984 94.3594 22.8438 94.3594 26.1875V27.7109ZM87.2344 26.1641C87.2344 22.5859 86.5938 19.8672 85.3125 18.0078C84.0312 16.1484 82.2031 15.2188 79.8281 15.2188C77.4688 15.2188 75.6484 16.1406 74.3672 17.9844C73.0859 19.8125 72.4375 22.5 72.4219 26.0469V27.7109C72.4219 31.1953 73.0625 33.8984 74.3438 35.8203C75.625 37.7422 77.4688 38.7031 79.875 38.7031C82.2344 38.7031 84.0469 37.7812 85.3125 35.9375C86.5781 34.0781 87.2188 31.375 87.2344 27.8281V26.1641ZM123.141 15.5703H112.688V44H105.656V15.5703H95.3438V9.875H123.141V15.5703ZM147.703 29.2109H134.203V38.3516H150.047V44H127.172V9.875H150V15.5703H134.203V23.7031H147.703V29.2109ZM164.859 30.3125L161.203 34.25V44H154.172V9.875H161.203V25.3438L164.297 21.1016L172.992 9.875H181.641L169.523 25.0391L181.992 44H173.625L164.859 30.3125Z" fill="white"/>
<path d="M82.7422 75.0469C82.7422 73.7188 82.2734 72.7031 81.3359 72C80.3984 71.2812 78.7109 70.5312 76.2734 69.75C73.8359 68.9531 71.9062 68.1719 70.4844 67.4062C66.6094 65.3125 64.6719 62.4922 64.6719 58.9453C64.6719 57.1016 65.1875 55.4609 66.2188 54.0234C67.2656 52.5703 68.7578 51.4375 70.6953 50.625C72.6484 49.8125 74.8359 49.4062 77.2578 49.4062C79.6953 49.4062 81.8672 49.8516 83.7734 50.7422C85.6797 51.6172 87.1562 52.8594 88.2031 54.4688C89.2656 56.0781 89.7969 57.9062 89.7969 59.9531H82.7656C82.7656 58.3906 82.2734 57.1797 81.2891 56.3203C80.3047 55.4453 78.9219 55.0078 77.1406 55.0078C75.4219 55.0078 74.0859 55.375 73.1328 56.1094C72.1797 56.8281 71.7031 57.7812 71.7031 58.9688C71.7031 60.0781 72.2578 61.0078 73.3672 61.7578C74.4922 62.5078 76.1406 63.2109 78.3125 63.8672C82.3125 65.0703 85.2266 66.5625 87.0547 68.3438C88.8828 70.125 89.7969 72.3438 89.7969 75C89.7969 77.9531 88.6797 80.2734 86.4453 81.9609C84.2109 83.6328 81.2031 84.4688 77.4219 84.4688C74.7969 84.4688 72.4062 83.9922 70.25 83.0391C68.0938 82.0703 66.4453 80.75 65.3047 79.0781C64.1797 77.4062 63.6172 75.4688 63.6172 73.2656H70.6719C70.6719 77.0312 72.9219 78.9141 77.4219 78.9141C79.0938 78.9141 80.3984 78.5781 81.3359 77.9062C82.2734 77.2188 82.7422 76.2656 82.7422 75.0469ZM113.844 76.9688H101.516L99.1719 84H91.6953L104.398 49.875H110.914L123.688 84H116.211L113.844 76.9688ZM103.414 71.2734H111.945L107.656 58.5L103.414 71.2734ZM154.648 84H147.617V69.375H133.906V84H126.875V49.875H133.906V63.7031H147.617V49.875H154.648V84ZM180.5 76.9688H168.172L165.828 84H158.352L171.055 49.875H177.57L190.344 84H182.867L180.5 76.9688ZM170.07 71.2734H178.602L174.312 58.5L170.07 71.2734ZM193.531 84V49.875H205.484C209.625 49.875 212.766 50.6719 214.906 52.2656C217.047 53.8438 218.117 56.1641 218.117 59.2266C218.117 60.8984 217.688 62.375 216.828 63.6562C215.969 64.9219 214.773 65.8516 213.242 66.4453C214.992 66.8828 216.367 67.7656 217.367 69.0938C218.383 70.4219 218.891 72.0469 218.891 73.9688C218.891 77.25 217.844 79.7344 215.75 81.4219C213.656 83.1094 210.672 83.9688 206.797 84H193.531ZM200.562 69.1406V78.3516H206.586C208.242 78.3516 209.531 77.9609 210.453 77.1797C211.391 76.3828 211.859 75.2891 211.859 73.8984C211.859 70.7734 210.242 69.1875 207.008 69.1406H200.562ZM200.562 64.1719H205.766C209.312 64.1094 211.086 62.6953 211.086 59.9297C211.086 58.3828 210.633 57.2734 209.727 56.6016C208.836 55.9141 207.422 55.5703 205.484 55.5703H200.562V64.1719ZM243.453 76.9688H231.125L228.781 84H221.305L234.008 49.875H240.523L253.297 84H245.82L243.453 76.9688ZM233.023 71.2734H241.555L237.266 58.5L233.023 71.2734ZM279.359 55.5703H268.906V84H261.875V55.5703H251.562V49.875H279.359V55.5703Z" fill="white"/>
<path d="M221.939 33.25C222.752 33.25 223.436 33.5333 223.994 34.1C224.551 34.6667 224.825 35.3278 224.815 36.0833L213.439 40.3333L203.523 37.5V24.75H206.285L216.584 28.5608C217.321 28.8536 217.689 29.3825 217.689 30.1475C217.689 30.5914 217.529 30.9786 217.208 31.3092C216.887 31.6397 216.48 31.8144 215.989 31.8333H212.023L209.543 30.8842L209.076 32.2158L212.023 33.25H221.939ZM216.273 13.7425C217.274 12.5808 218.549 12 220.098 12C221.382 12 222.468 12.4722 223.356 13.4167C224.244 14.3611 224.716 15.4472 224.773 16.675C224.773 17.6478 224.3 18.8094 223.356 20.16C222.412 21.5106 221.481 22.6392 220.565 23.5458C219.649 24.4525 218.218 25.7983 216.273 27.5833C214.308 25.7983 212.863 24.4525 211.938 23.5458C211.012 22.6392 210.082 21.5106 209.147 20.16C208.212 18.8094 207.754 17.6478 207.773 16.675C207.773 15.3906 208.231 14.3044 209.147 13.4167C210.063 12.5289 211.168 12.0567 212.462 12C213.973 12 215.243 12.5808 216.273 13.7425ZM195 24.75H200.689V40.3333H195V24.75Z" fill="white"/>
</svg>
